<svg width="13px" height="13px" viewBox="0 0 13 13" version="1.1" xmlns="http://www.w3.org/2000/svg" xmlns:xlink="http://www.w3.org/1999/xlink">
    <g id="Symbols" stroke="none" stroke-width="1" fill="none" fill-rule="evenodd">
        <g id="blue-button" transform="translate(-193.000000, -11.000000)" fill="#FFFFFF" fill-rule="nonzero">
            <g id="box-arrow-up-right" transform="translate(193.000000, 11.000000)">
                <path d="M7.30738462,2.42307692 C7.30738462,2.18941799 7.11796662,2 6.88430769,2 L1.26923077,2 C0.568253971,2 0,2.56825397 0,3.26923077 L0,11.7307692 C0,12.431746 0.568253971,13 1.26923077,13 L9.73076923,13 C10.431746,13 11,12.431746 11,11.7307692 L11,6.11569231 C11,5.88203338 10.810582,5.69261538 10.5769231,5.69261538 C10.3432641,5.69261538 10.1538462,5.88203338 10.1538462,6.11569231 L10.1538462,11.7307692 C10.1538462,11.9644282 9.96442816,12.1538462 9.73076923,12.1538462 L1.26923077,12.1538462 C1.03557184,12.1538462 0.846153846,11.9644282 0.846153846,11.7307692 L0.846153846,3.26923077 C0.846153846,3.03557184 1.03557184,2.84615385 1.26923077,2.84615385 L6.88430769,2.84615385 C7.11796662,2.84615385 7.30738462,2.65673586 7.30738462,2.42307692 Z" id="Path"></path>
                <path d="M13,0.399974281 C13,0.179074585 12.8209254,0 12.6000257,0 L8.60028291,0 C8.37938321,0 8.20030862,0.179074585 8.20030862,0.399974281 C8.20030862,0.620873977 8.37938321,0.799948563 8.60028291,0.799948563 L11.6344878,0.799948563 L5.11730686,7.31632955 C5.01613575,7.41750066 4.97662393,7.56496077 5.01365513,7.70316308 C5.05068633,7.84136538 5.15863462,7.94931367 5.29683692,7.98634487 C5.43503923,8.02337607 5.58249934,7.98386425 5.68367045,7.88269314 L12.2000514,1.3655122 L12.2000514,4.39971709 C12.2000514,4.62061679 12.379126,4.79969138 12.6000257,4.79969138 C12.8209254,4.79969138 13,4.62061679 13,4.39971709 L13,0.399974281 Z" id="Path"></path>
            </g>
        </g>
    </g>
</svg>