<?xml version="1.0" encoding="UTF-8"?>
<svg width="1280px" height="119px" viewBox="0 0 1280 119" version="1.1" xmlns="http://www.w3.org/2000/svg" xmlns:xlink="http://www.w3.org/1999/xlink">
    <!-- Generator: Sketch 52.4 (67378) - http://www.bohemiancoding.com/sketch -->
    <title>Group 2</title>
    <desc>Created with Sketch.</desc>
    <defs>
        <rect id="path-1" x="0" y="0" width="783" height="119"></rect>
        <rect id="path-3" x="0" y="0" width="783" height="119"></rect>
        <rect id="path-5" x="0" y="0" width="783" height="119"></rect>
        <rect id="path-7" x="0" y="0" width="783" height="119"></rect>
    </defs>
    <g id="Page-1" stroke="none" stroke-width="1" fill="none" fill-rule="evenodd">
        <g id="Group-2">
            <rect id="Rectangle---Forces-Width" fill-rule="nonzero" x="0" y="0" width="1280" height="119"></rect>
            <g id="Clipped" transform="translate(497.000000, 0.000000)">
                <mask id="mask-2" fill="white">
                    <use xlink:href="#path-1"></use>
                </mask>
                <g id="SVGID_1_"></g>
                <g id="Group" mask="url(#mask-2)" fill="#939C4A">
                    <g transform="translate(434.000000, -67.000000)" id="Shape">
                        <path d="M137.42,226.53 C107.76,226.53 83.4,203.52 81.19,174.41 C87.91,173.47 94.33,171.58 100.32,168.89 C100.31,169.3 100.29,169.71 100.29,170.11 C100.29,180.03 104.15,189.36 111.17,196.37 C118.18,203.38 127.5,207.25 137.42,207.25 C157.9,207.25 174.55,190.59 174.55,170.11 C174.55,149.64 157.9,132.98 137.42,132.98 C137.02,132.98 136.61,133 136.2,133.01 C138.89,127.02 140.78,120.6 141.72,113.88 C155.17,114.89 167.68,120.59 177.31,130.23 C187.97,140.88 193.83,155.05 193.83,170.12 C193.83,201.22 168.53,226.53 137.42,226.53 Z M71.28,174.55 C32.36,174.55 0.69,142.89 0.69,103.97 C0.69,65.05 32.36,33.39 71.28,33.38 C81.63,33.38 91.47,35.65 100.34,39.67 C100.72,47.49 103.54,54.68 108.05,60.5 C98.12,52.09 85.29,47 71.28,47 C39.86,47 14.3,72.55 14.3,103.97 C14.3,135.38 39.86,160.94 71.28,160.95 C74.72,160.95 78.08,160.62 81.36,160.03 C80.77,163.31 80.45,166.67 80.45,170.11 C80.45,171.39 80.51,172.66 80.59,173.92 C77.54,174.32 74.44,174.55 71.28,174.55 Z M100.85,37.83 C100.85,17.66 117.26,1.26 137.42,1.26 C157.59,1.26 173.99,17.66 173.99,37.82 C173.99,57.99 157.59,74.39 137.42,74.39 C136.93,74.39 136.43,74.38 135.94,74.36 C132.98,67.9 129.08,61.97 124.41,56.73 C128.11,59.28 132.59,60.78 137.42,60.78 C150.08,60.78 160.38,50.48 160.38,37.82 C160.38,31.69 157.99,25.93 153.66,21.59 C149.32,17.25 143.56,14.87 137.42,14.87 C124.76,14.87 114.46,25.17 114.46,37.82 C114.46,42.65 115.96,47.13 118.52,50.84 C113.28,46.17 107.34,42.27 100.89,39.3 C100.87,38.81 100.85,38.32 100.85,37.83 Z M114.82,140.66 C121,133.33 125.37,124.43 127.23,114.64 C130.54,114.04 133.94,113.7 137.42,113.7 C138.67,113.7 139.92,113.76 141.16,113.84 C140.21,120.59 138.3,127.03 135.58,133.03 C127.97,133.4 120.79,136.06 114.82,140.66 Z M126.64,114.75 C122.28,137.22 104.53,154.97 82.05,159.34 C86.42,136.86 104.17,119.12 126.64,114.75 Z M71.28,140.54 C51.11,140.54 34.71,124.13 34.71,103.97 C34.71,83.81 51.11,67.4 71.28,67.4 C91.44,67.4 107.85,83.81 107.85,103.97 C107.85,124.13 91.44,140.54 71.28,140.54 Z M127.69,103.97 C127.69,107.45 127.36,110.85 126.75,114.16 C116.93,116.03 107.99,120.42 100.65,126.65 C105.51,120.37 108.41,112.5 108.41,103.97 C108.41,83.5 91.75,66.84 71.28,66.84 C50.8,66.84 34.15,83.5 34.15,103.97 C34.15,124.44 50.8,141.1 71.28,141.1 C79.81,141.1 87.68,138.2 93.95,133.34 C87.73,140.69 83.33,149.62 81.46,159.44 C78.16,160.05 74.76,160.38 71.28,160.38 C40.17,160.38 14.87,135.07 14.87,103.97 C14.87,72.86 40.17,47.56 71.28,47.56 C102.38,47.56 127.69,72.86 127.69,103.97 Z M135.31,74.33 C116.83,73.27 101.98,58.42 100.92,39.93 C116.05,46.97 128.28,59.2 135.31,74.33 Z M115.03,37.82 C115.03,25.48 125.07,15.43 137.42,15.43 C143.4,15.43 149.03,17.76 153.26,21.99 C157.49,26.22 159.82,31.84 159.82,37.82 C159.82,50.17 149.77,60.22 137.42,60.22 C125.07,60.22 115.03,50.17 115.03,37.82 Z M81.01,170.11 C81.01,166.63 81.34,163.23 81.95,159.93 C91.74,158.06 100.64,153.7 107.97,147.51 C103.37,153.48 100.71,160.66 100.34,168.27 C94.34,170.99 87.9,172.9 81.15,173.85 C81.07,172.61 81.01,171.37 81.01,170.11 Z M100.92,168.01 C101.43,159.03 105.16,150.66 111.56,144.26 C117.97,137.85 126.34,134.12 135.31,133.61 C128.28,148.74 116.05,160.97 100.92,168.01 Z M137.42,147.72 C143.41,147.72 149.03,150.05 153.26,154.28 C157.49,158.51 159.82,164.13 159.82,170.12 C159.82,182.46 149.77,192.51 137.42,192.51 C125.07,192.51 115.03,182.46 115.03,170.12 C115.03,157.77 125.07,147.72 137.42,147.72 Z M100.89,168.64 C107.34,165.67 113.28,161.77 118.52,157.11 C115.96,160.81 114.46,165.29 114.46,170.12 C114.46,182.77 124.76,193.07 137.42,193.07 C150.08,193.07 160.38,182.77 160.38,170.12 C160.38,163.98 157.99,158.22 153.66,153.88 C149.32,149.54 143.56,147.16 137.43,147.16 C132.6,147.16 128.12,148.66 124.42,151.21 C129.08,145.97 132.98,140.03 135.95,133.58 C136.44,133.56 136.93,133.54 137.42,133.54 C157.59,133.54 173.99,149.95 173.99,170.11 C173.99,190.28 157.59,206.68 137.42,206.68 C127.65,206.68 118.47,202.88 111.56,195.97 C104.66,189.06 100.85,179.88 100.86,170.11 C100.86,169.62 100.87,169.13 100.89,168.64 Z M141.86,103.97 C141.86,107.13 141.63,110.23 141.23,113.28 C139.97,113.2 138.7,113.14 137.42,113.14 C133.98,113.14 130.62,113.46 127.34,114.05 C127.93,110.78 128.25,107.41 128.25,103.97 C128.25,89.96 123.16,77.13 114.74,67.2 C120.57,71.7 127.75,74.52 135.58,74.91 C139.6,83.78 141.86,93.61 141.86,103.97 Z M177.71,129.83 C167.99,120.1 155.36,114.34 141.79,113.32 C142.2,110.26 142.43,107.14 142.43,103.97 C142.42,93.63 140.19,83.8 136.2,74.93 C136.61,74.94 137.01,74.96 137.42,74.96 C157.9,74.96 174.55,58.3 174.55,37.82 C174.55,17.35 157.9,0.69 137.42,0.69 C116.95,0.69 100.29,17.35 100.29,37.83 C100.29,38.23 100.31,38.64 100.32,39.05 C91.45,35.06 81.62,32.82 71.28,32.82 C32.05,32.82 0.13,64.74 0.13,103.97 C0.13,143.2 32.05,175.12 71.28,175.12 C74.45,175.12 77.57,174.89 80.63,174.48 C82.87,203.86 107.48,227.09 137.42,227.09 C168.84,227.09 194.4,201.53 194.4,170.12 C194.4,154.9 188.47,140.59 177.71,129.83 Z"></path>
                        <path d="M137.42,156.22 C145.08,156.22 151.31,162.45 151.31,170.11 C151.31,177.77 145.08,184.01 137.42,184.01 L137.42,184.29 L137.42,184.01 C129.76,184.01 123.53,177.77 123.53,170.12 C123.53,162.46 129.76,156.22 137.42,156.22 Z M137.42,184.57 C145.39,184.57 151.88,178.08 151.88,170.11 C151.88,162.14 145.39,155.66 137.42,155.66 C129.45,155.66 122.97,162.14 122.97,170.12 C122.97,178.08 129.45,184.57 137.42,184.57 Z"></path>
                    </g>
                </g>
            </g>
            <g id="Clipped" transform="translate(497.000000, 0.000000)">
                <mask id="mask-4" fill="white">
                    <use xlink:href="#path-3"></use>
                </mask>
                <g id="SVGID_1_"></g>
                <g id="Group" mask="url(#mask-4)" fill="#939C4A">
                    <g transform="translate(586.000000, -54.000000)" id="Shape">
                        <path d="M137.42,226.53 C107.76,226.53 83.4,203.52 81.19,174.41 C87.91,173.47 94.33,171.58 100.32,168.89 C100.31,169.3 100.29,169.71 100.29,170.11 C100.29,180.03 104.15,189.36 111.17,196.37 C118.18,203.38 127.5,207.25 137.42,207.25 C157.9,207.25 174.55,190.59 174.55,170.11 C174.55,149.64 157.9,132.98 137.42,132.98 C137.02,132.98 136.61,133 136.2,133.01 C138.89,127.02 140.78,120.6 141.72,113.88 C155.17,114.89 167.68,120.59 177.31,130.23 C187.97,140.88 193.83,155.05 193.83,170.12 C193.83,201.22 168.53,226.53 137.42,226.53 Z M71.28,174.55 C32.36,174.55 0.69,142.89 0.69,103.97 C0.69,65.05 32.36,33.39 71.28,33.38 C81.63,33.38 91.47,35.65 100.34,39.67 C100.72,47.49 103.54,54.68 108.05,60.5 C98.12,52.09 85.29,47 71.28,47 C39.86,47 14.3,72.55 14.3,103.97 C14.3,135.38 39.86,160.94 71.28,160.95 C74.72,160.95 78.08,160.62 81.36,160.03 C80.77,163.31 80.45,166.67 80.45,170.11 C80.45,171.39 80.51,172.66 80.59,173.92 C77.54,174.32 74.44,174.55 71.28,174.55 Z M100.85,37.83 C100.85,17.66 117.26,1.26 137.42,1.26 C157.59,1.26 173.99,17.66 173.99,37.82 C173.99,57.99 157.59,74.39 137.42,74.39 C136.93,74.39 136.43,74.38 135.94,74.36 C132.98,67.9 129.08,61.97 124.41,56.73 C128.11,59.28 132.59,60.78 137.42,60.78 C150.08,60.78 160.38,50.48 160.38,37.82 C160.38,31.69 157.99,25.93 153.66,21.59 C149.32,17.25 143.56,14.87 137.42,14.87 C124.76,14.87 114.46,25.17 114.46,37.82 C114.46,42.65 115.96,47.13 118.52,50.84 C113.28,46.17 107.34,42.27 100.89,39.3 C100.87,38.81 100.85,38.32 100.85,37.83 Z M114.82,140.66 C121,133.33 125.37,124.43 127.23,114.64 C130.54,114.04 133.94,113.7 137.42,113.7 C138.67,113.7 139.92,113.76 141.16,113.84 C140.21,120.59 138.3,127.03 135.58,133.03 C127.97,133.4 120.79,136.06 114.82,140.66 Z M126.64,114.75 C122.28,137.22 104.53,154.97 82.05,159.34 C86.42,136.86 104.17,119.12 126.64,114.75 Z M71.28,140.54 C51.11,140.54 34.71,124.13 34.71,103.97 C34.71,83.81 51.11,67.4 71.28,67.4 C91.44,67.4 107.85,83.81 107.85,103.97 C107.85,124.13 91.44,140.54 71.28,140.54 Z M127.69,103.97 C127.69,107.45 127.36,110.85 126.75,114.16 C116.93,116.03 107.99,120.42 100.65,126.65 C105.51,120.37 108.41,112.5 108.41,103.97 C108.41,83.5 91.75,66.84 71.28,66.84 C50.8,66.84 34.15,83.5 34.15,103.97 C34.15,124.44 50.8,141.1 71.28,141.1 C79.81,141.1 87.68,138.2 93.95,133.34 C87.73,140.69 83.33,149.62 81.46,159.44 C78.16,160.05 74.76,160.38 71.28,160.38 C40.17,160.38 14.87,135.07 14.87,103.97 C14.87,72.86 40.17,47.56 71.28,47.56 C102.38,47.56 127.69,72.86 127.69,103.97 Z M135.31,74.33 C116.83,73.27 101.98,58.42 100.92,39.93 C116.05,46.97 128.28,59.2 135.31,74.33 Z M115.03,37.82 C115.03,25.48 125.07,15.43 137.42,15.43 C143.4,15.43 149.03,17.76 153.26,21.99 C157.49,26.22 159.82,31.84 159.82,37.82 C159.82,50.17 149.77,60.22 137.42,60.22 C125.07,60.22 115.03,50.17 115.03,37.82 Z M81.01,170.11 C81.01,166.63 81.34,163.23 81.95,159.93 C91.74,158.06 100.64,153.7 107.97,147.51 C103.37,153.48 100.71,160.66 100.34,168.27 C94.34,170.99 87.9,172.9 81.15,173.85 C81.07,172.61 81.01,171.37 81.01,170.11 Z M100.92,168.01 C101.43,159.03 105.16,150.66 111.56,144.26 C117.97,137.85 126.34,134.12 135.31,133.61 C128.28,148.74 116.05,160.97 100.92,168.01 Z M137.42,147.72 C143.41,147.72 149.03,150.05 153.26,154.28 C157.49,158.51 159.82,164.13 159.82,170.12 C159.82,182.46 149.77,192.51 137.42,192.51 C125.07,192.51 115.03,182.46 115.03,170.12 C115.03,157.77 125.07,147.72 137.42,147.72 Z M100.89,168.64 C107.34,165.67 113.28,161.77 118.52,157.11 C115.96,160.81 114.46,165.29 114.46,170.12 C114.46,182.77 124.76,193.07 137.42,193.07 C150.08,193.07 160.38,182.77 160.38,170.12 C160.38,163.98 157.99,158.22 153.66,153.88 C149.32,149.54 143.56,147.16 137.43,147.16 C132.6,147.16 128.12,148.66 124.42,151.21 C129.08,145.97 132.98,140.03 135.95,133.58 C136.44,133.56 136.93,133.54 137.42,133.54 C157.59,133.54 173.99,149.95 173.99,170.11 C173.99,190.28 157.59,206.68 137.42,206.68 C127.65,206.68 118.47,202.88 111.56,195.97 C104.66,189.06 100.85,179.88 100.86,170.11 C100.86,169.62 100.87,169.13 100.89,168.64 Z M141.86,103.97 C141.86,107.13 141.63,110.23 141.23,113.28 C139.97,113.2 138.7,113.14 137.42,113.14 C133.98,113.14 130.62,113.46 127.34,114.05 C127.93,110.78 128.25,107.41 128.25,103.97 C128.25,89.96 123.16,77.13 114.74,67.2 C120.57,71.7 127.75,74.52 135.58,74.91 C139.6,83.78 141.86,93.61 141.86,103.97 Z M177.71,129.83 C167.99,120.1 155.36,114.34 141.79,113.32 C142.2,110.26 142.43,107.14 142.43,103.97 C142.42,93.63 140.19,83.8 136.2,74.93 C136.61,74.94 137.01,74.96 137.42,74.96 C157.9,74.96 174.55,58.3 174.55,37.82 C174.55,17.35 157.9,0.69 137.42,0.69 C116.95,0.69 100.29,17.35 100.29,37.83 C100.29,38.23 100.31,38.64 100.32,39.05 C91.45,35.06 81.62,32.82 71.28,32.82 C32.05,32.82 0.13,64.74 0.13,103.97 C0.13,143.2 32.05,175.12 71.28,175.12 C74.45,175.12 77.57,174.89 80.63,174.48 C82.87,203.86 107.48,227.09 137.42,227.09 C168.84,227.09 194.4,201.53 194.4,170.12 C194.4,154.9 188.47,140.59 177.71,129.83 Z"></path>
                        <path d="M137.42,156.22 C145.08,156.22 151.31,162.45 151.31,170.11 C151.31,177.77 145.08,184.01 137.42,184.01 L137.42,184.29 L137.42,184.01 C129.76,184.01 123.53,177.77 123.53,170.12 C123.53,162.46 129.76,156.22 137.42,156.22 Z M137.42,184.57 C145.39,184.57 151.88,178.08 151.88,170.11 C151.88,162.14 145.39,155.66 137.42,155.66 C129.45,155.66 122.97,162.14 122.97,170.12 C122.97,178.08 129.45,184.57 137.42,184.57 Z"></path>
                    </g>
                </g>
            </g>
            <g id="Clipped" transform="translate(497.000000, 0.000000)">
                <mask id="mask-6" fill="white">
                    <use xlink:href="#path-5"></use>
                </mask>
                <g id="SVGID_1_"></g>
                <g id="Group" mask="url(#mask-6)" fill="#939C4A">
                    <g transform="translate(212.000000, 27.000000)" id="Shape">
                        <path d="M123.53,37.83 C123.53,30.17 129.76,23.93 137.42,23.93 C145.08,23.93 151.31,30.17 151.31,37.82 C151.31,45.48 145.08,51.72 137.42,51.72 C129.76,51.72 123.53,45.48 123.53,37.83 Z M151.88,37.82 C151.88,29.85 145.39,23.37 137.42,23.37 C129.45,23.37 122.97,29.85 122.97,37.83 C122.97,45.79 129.45,52.28 137.42,52.28 C145.39,52.28 151.88,45.79 151.88,37.82 Z"></path>
                        <path d="M129.2,37.82 C129.2,35.63 130.05,33.56 131.61,32.01 C133.16,30.46 135.22,29.6 137.42,29.6 C139.62,29.6 141.68,30.46 143.24,32.01 C144.79,33.56 145.64,35.63 145.64,37.83 C145.64,42.36 141.96,46.05 137.42,46.05 L137.42,46.33 L137.42,46.05 C132.89,46.05 129.2,42.36 129.2,37.82 Z M146.21,37.83 C146.21,35.48 145.29,33.27 143.63,31.61 C141.97,29.95 139.77,29.04 137.42,29.04 C135.07,29.04 132.87,29.95 131.21,31.61 C129.55,33.27 128.64,35.48 128.64,37.82 C128.64,42.67 132.58,46.61 137.42,46.61 C142.27,46.61 146.21,42.67 146.21,37.83 Z"></path>
                        <path d="M134.87,37.83 C134.87,36.42 136.02,35.27 137.42,35.27 C138.11,35.27 138.75,35.54 139.23,36.02 C139.71,36.5 139.97,37.14 139.97,37.82 C139.98,39.23 138.83,40.38 137.42,40.38 C136.01,40.38 134.87,39.23 134.87,37.83 Z M140.54,37.82 C140.54,36.99 140.21,36.21 139.62,35.62 C139.04,35.03 138.26,34.71 137.42,34.71 C135.71,34.71 134.31,36.11 134.31,37.83 C134.31,39.54 135.71,40.94 137.42,40.94 C139.14,40.94 140.54,39.54 140.54,37.82 Z"></path>
                        <path d="M137.42,226.53 C107.76,226.53 83.4,203.52 81.19,174.41 C87.91,173.47 94.33,171.58 100.32,168.89 C100.31,169.3 100.29,169.71 100.29,170.11 C100.29,180.03 104.15,189.36 111.17,196.37 C118.18,203.38 127.5,207.25 137.42,207.25 C157.9,207.25 174.55,190.59 174.55,170.11 C174.55,149.64 157.9,132.98 137.42,132.98 C137.02,132.98 136.61,133 136.2,133.01 C138.89,127.02 140.78,120.6 141.72,113.88 C155.17,114.89 167.68,120.59 177.31,130.23 C187.97,140.88 193.83,155.05 193.83,170.12 C193.83,201.22 168.53,226.53 137.42,226.53 Z M71.28,174.55 C32.36,174.55 0.69,142.89 0.69,103.97 C0.69,65.05 32.36,33.39 71.28,33.38 C81.63,33.38 91.47,35.65 100.34,39.67 C100.72,47.49 103.54,54.68 108.05,60.5 C98.12,52.09 85.29,47 71.28,47 C39.86,47 14.3,72.55 14.3,103.97 C14.3,135.38 39.86,160.94 71.28,160.95 C74.72,160.95 78.08,160.62 81.36,160.03 C80.77,163.31 80.45,166.67 80.45,170.11 C80.45,171.39 80.51,172.66 80.59,173.92 C77.54,174.32 74.44,174.55 71.28,174.55 Z M100.85,37.83 C100.85,17.66 117.26,1.26 137.42,1.26 C157.59,1.26 173.99,17.66 173.99,37.82 C173.99,57.99 157.59,74.39 137.42,74.39 C136.93,74.39 136.43,74.38 135.94,74.36 C132.98,67.9 129.08,61.97 124.41,56.73 C128.11,59.28 132.59,60.78 137.42,60.78 C150.08,60.78 160.38,50.48 160.38,37.82 C160.38,31.69 157.99,25.93 153.66,21.59 C149.32,17.25 143.56,14.87 137.42,14.87 C124.76,14.87 114.46,25.17 114.46,37.82 C114.46,42.65 115.96,47.13 118.52,50.84 C113.28,46.17 107.34,42.27 100.89,39.3 C100.87,38.81 100.85,38.32 100.85,37.83 Z M114.82,140.66 C121,133.33 125.37,124.43 127.23,114.64 C130.54,114.04 133.94,113.7 137.42,113.7 C138.67,113.7 139.92,113.76 141.16,113.84 C140.21,120.59 138.3,127.03 135.58,133.03 C127.97,133.4 120.79,136.06 114.82,140.66 Z M126.64,114.75 C122.28,137.22 104.53,154.97 82.05,159.34 C86.42,136.86 104.17,119.12 126.64,114.75 Z M71.28,140.54 C51.11,140.54 34.71,124.13 34.71,103.97 C34.71,83.81 51.11,67.4 71.28,67.4 C91.44,67.4 107.85,83.81 107.85,103.97 C107.85,124.13 91.44,140.54 71.28,140.54 Z M127.69,103.97 C127.69,107.45 127.36,110.85 126.75,114.16 C116.93,116.03 107.99,120.42 100.65,126.65 C105.51,120.37 108.41,112.5 108.41,103.97 C108.41,83.5 91.75,66.84 71.28,66.84 C50.8,66.84 34.15,83.5 34.15,103.97 C34.15,124.44 50.8,141.1 71.28,141.1 C79.81,141.1 87.68,138.2 93.95,133.34 C87.73,140.69 83.33,149.62 81.46,159.44 C78.16,160.05 74.76,160.38 71.28,160.38 C40.17,160.38 14.87,135.07 14.87,103.97 C14.87,72.86 40.17,47.56 71.28,47.56 C102.38,47.56 127.69,72.86 127.69,103.97 Z M135.31,74.33 C116.83,73.27 101.98,58.42 100.92,39.93 C116.05,46.97 128.28,59.2 135.31,74.33 Z M115.03,37.82 C115.03,25.48 125.07,15.43 137.42,15.43 C143.4,15.43 149.03,17.76 153.26,21.99 C157.49,26.22 159.82,31.84 159.82,37.82 C159.82,50.17 149.77,60.22 137.42,60.22 C125.07,60.22 115.03,50.17 115.03,37.82 Z M81.01,170.11 C81.01,166.63 81.34,163.23 81.95,159.93 C91.74,158.06 100.64,153.7 107.97,147.51 C103.37,153.48 100.71,160.66 100.34,168.27 C94.34,170.99 87.9,172.9 81.15,173.85 C81.07,172.61 81.01,171.37 81.01,170.11 Z M100.92,168.01 C101.43,159.03 105.16,150.66 111.56,144.26 C117.97,137.85 126.34,134.12 135.31,133.61 C128.28,148.74 116.05,160.97 100.92,168.01 Z M137.42,147.72 C143.41,147.72 149.03,150.05 153.26,154.28 C157.49,158.51 159.82,164.13 159.82,170.12 C159.82,182.46 149.77,192.51 137.42,192.51 C125.07,192.51 115.03,182.46 115.03,170.12 C115.03,157.77 125.07,147.72 137.42,147.72 Z M100.89,168.64 C107.34,165.67 113.28,161.77 118.52,157.11 C115.96,160.81 114.46,165.29 114.46,170.12 C114.46,182.77 124.76,193.07 137.42,193.07 C150.08,193.07 160.38,182.77 160.38,170.12 C160.38,163.98 157.99,158.22 153.66,153.88 C149.32,149.54 143.56,147.16 137.43,147.16 C132.6,147.16 128.12,148.66 124.42,151.21 C129.08,145.97 132.98,140.03 135.95,133.58 C136.44,133.56 136.93,133.54 137.42,133.54 C157.59,133.54 173.99,149.95 173.99,170.11 C173.99,190.28 157.59,206.68 137.42,206.68 C127.65,206.68 118.47,202.88 111.56,195.97 C104.66,189.06 100.85,179.88 100.86,170.11 C100.86,169.62 100.87,169.13 100.89,168.64 Z M141.86,103.97 C141.86,107.13 141.63,110.23 141.23,113.28 C139.97,113.2 138.7,113.14 137.42,113.14 C133.98,113.14 130.62,113.46 127.34,114.05 C127.93,110.78 128.25,107.41 128.25,103.97 C128.25,89.96 123.16,77.13 114.74,67.2 C120.57,71.7 127.75,74.52 135.58,74.91 C139.6,83.78 141.86,93.61 141.86,103.97 Z M177.71,129.83 C167.99,120.1 155.36,114.34 141.79,113.32 C142.2,110.26 142.43,107.14 142.43,103.97 C142.42,93.63 140.19,83.8 136.2,74.93 C136.61,74.94 137.01,74.96 137.42,74.96 C157.9,74.96 174.55,58.3 174.55,37.82 C174.55,17.35 157.9,0.69 137.42,0.69 C116.95,0.69 100.29,17.35 100.29,37.83 C100.29,38.23 100.31,38.64 100.32,39.05 C91.45,35.06 81.62,32.82 71.28,32.82 C32.05,32.82 0.13,64.74 0.13,103.97 C0.13,143.2 32.05,175.12 71.28,175.12 C74.45,175.12 77.57,174.89 80.63,174.48 C82.87,203.86 107.48,227.09 137.42,227.09 C168.84,227.09 194.4,201.53 194.4,170.12 C194.4,154.9 188.47,140.59 177.71,129.83 Z"></path>
                    </g>
                </g>
            </g>
            <g id="Clipped" transform="translate(497.000000, 0.000000)">
                <mask id="mask-8" fill="white">
                    <use xlink:href="#path-7"></use>
                </mask>
                <g id="SVGID_1_"></g>
                <g id="Group" mask="url(#mask-8)" fill="#939C4A">
                    <g transform="translate(3.000000, -108.000000)" id="Shape">
                        <path d="M137.42,226.53 C107.76,226.53 83.4,203.52 81.19,174.41 C87.91,173.47 94.33,171.58 100.32,168.89 C100.31,169.3 100.29,169.71 100.29,170.11 C100.29,180.03 104.15,189.36 111.17,196.37 C118.18,203.38 127.5,207.25 137.42,207.25 C157.9,207.25 174.55,190.59 174.55,170.11 C174.55,149.64 157.9,132.98 137.42,132.98 C137.02,132.98 136.61,133 136.2,133.01 C138.89,127.02 140.78,120.6 141.72,113.88 C155.17,114.89 167.68,120.59 177.31,130.23 C187.97,140.88 193.83,155.05 193.83,170.12 C193.83,201.22 168.53,226.53 137.42,226.53 Z M71.28,174.55 C32.36,174.55 0.69,142.89 0.69,103.97 C0.69,65.05 32.36,33.39 71.28,33.38 C81.63,33.38 91.47,35.65 100.34,39.67 C100.72,47.49 103.54,54.68 108.05,60.5 C98.12,52.09 85.29,47 71.28,47 C39.86,47 14.3,72.55 14.3,103.97 C14.3,135.38 39.86,160.94 71.28,160.95 C74.72,160.95 78.08,160.62 81.36,160.03 C80.77,163.31 80.45,166.67 80.45,170.11 C80.45,171.39 80.51,172.66 80.59,173.92 C77.54,174.32 74.44,174.55 71.28,174.55 Z M100.85,37.83 C100.85,17.66 117.26,1.26 137.42,1.26 C157.59,1.26 173.99,17.66 173.99,37.82 C173.99,57.99 157.59,74.39 137.42,74.39 C136.93,74.39 136.43,74.38 135.94,74.36 C132.98,67.9 129.08,61.97 124.41,56.73 C128.11,59.28 132.59,60.78 137.42,60.78 C150.08,60.78 160.38,50.48 160.38,37.82 C160.38,31.69 157.99,25.93 153.66,21.59 C149.32,17.25 143.56,14.87 137.42,14.87 C124.76,14.87 114.46,25.17 114.46,37.82 C114.46,42.65 115.96,47.13 118.52,50.84 C113.28,46.17 107.34,42.27 100.89,39.3 C100.87,38.81 100.85,38.32 100.85,37.83 Z M114.82,140.66 C121,133.33 125.37,124.43 127.23,114.64 C130.54,114.04 133.94,113.7 137.42,113.7 C138.67,113.7 139.92,113.76 141.16,113.84 C140.21,120.59 138.3,127.03 135.58,133.03 C127.97,133.4 120.79,136.06 114.82,140.66 Z M126.64,114.75 C122.28,137.22 104.53,154.97 82.05,159.34 C86.42,136.86 104.17,119.12 126.64,114.75 Z M71.28,140.54 C51.11,140.54 34.71,124.13 34.71,103.97 C34.71,83.81 51.11,67.4 71.28,67.4 C91.44,67.4 107.85,83.81 107.85,103.97 C107.85,124.13 91.44,140.54 71.28,140.54 Z M127.69,103.97 C127.69,107.45 127.36,110.85 126.75,114.16 C116.93,116.03 107.99,120.42 100.65,126.65 C105.51,120.37 108.41,112.5 108.41,103.97 C108.41,83.5 91.75,66.84 71.28,66.84 C50.8,66.84 34.15,83.5 34.15,103.97 C34.15,124.44 50.8,141.1 71.28,141.1 C79.81,141.1 87.68,138.2 93.95,133.34 C87.73,140.69 83.33,149.62 81.46,159.44 C78.16,160.05 74.76,160.38 71.28,160.38 C40.17,160.38 14.87,135.07 14.87,103.97 C14.87,72.86 40.17,47.56 71.28,47.56 C102.38,47.56 127.69,72.86 127.69,103.97 Z M135.31,74.33 C116.83,73.27 101.98,58.42 100.92,39.93 C116.05,46.97 128.28,59.2 135.31,74.33 Z M115.03,37.82 C115.03,25.48 125.07,15.43 137.42,15.43 C143.4,15.43 149.03,17.76 153.26,21.99 C157.49,26.22 159.82,31.84 159.82,37.82 C159.82,50.17 149.77,60.22 137.42,60.22 C125.07,60.22 115.03,50.17 115.03,37.82 Z M81.01,170.11 C81.01,166.63 81.34,163.23 81.95,159.93 C91.74,158.06 100.64,153.7 107.97,147.51 C103.37,153.48 100.71,160.66 100.34,168.27 C94.34,170.99 87.9,172.9 81.15,173.85 C81.07,172.61 81.01,171.37 81.01,170.11 Z M100.92,168.01 C101.43,159.03 105.16,150.66 111.56,144.26 C117.97,137.85 126.34,134.12 135.31,133.61 C128.28,148.74 116.05,160.97 100.92,168.01 Z M137.42,147.72 C143.41,147.72 149.03,150.05 153.26,154.28 C157.49,158.51 159.82,164.13 159.82,170.12 C159.82,182.46 149.77,192.51 137.42,192.51 C125.07,192.51 115.03,182.46 115.03,170.12 C115.03,157.77 125.07,147.72 137.42,147.72 Z M100.89,168.64 C107.34,165.67 113.28,161.77 118.52,157.11 C115.96,160.81 114.46,165.29 114.46,170.12 C114.46,182.77 124.76,193.07 137.42,193.07 C150.08,193.07 160.38,182.77 160.38,170.12 C160.38,163.98 157.99,158.22 153.66,153.88 C149.32,149.54 143.56,147.16 137.43,147.16 C132.6,147.16 128.12,148.66 124.42,151.21 C129.08,145.97 132.98,140.03 135.95,133.58 C136.44,133.56 136.93,133.54 137.42,133.54 C157.59,133.54 173.99,149.95 173.99,170.11 C173.99,190.28 157.59,206.68 137.42,206.68 C127.65,206.68 118.47,202.88 111.56,195.97 C104.66,189.06 100.85,179.88 100.86,170.11 C100.86,169.62 100.87,169.13 100.89,168.64 Z M141.86,103.97 C141.86,107.13 141.63,110.23 141.23,113.28 C139.97,113.2 138.7,113.14 137.42,113.14 C133.98,113.14 130.62,113.46 127.34,114.05 C127.93,110.78 128.25,107.41 128.25,103.97 C128.25,89.96 123.16,77.13 114.74,67.2 C120.57,71.7 127.75,74.52 135.58,74.91 C139.6,83.78 141.86,93.61 141.86,103.97 Z M177.71,129.83 C167.99,120.1 155.36,114.34 141.79,113.32 C142.2,110.26 142.43,107.14 142.43,103.97 C142.42,93.63 140.19,83.8 136.2,74.93 C136.61,74.94 137.01,74.96 137.42,74.96 C157.9,74.96 174.55,58.3 174.55,37.82 C174.55,17.35 157.9,0.69 137.42,0.69 C116.95,0.69 100.29,17.35 100.29,37.83 C100.29,38.23 100.31,38.64 100.32,39.05 C91.45,35.06 81.62,32.82 71.28,32.82 C32.05,32.82 0.13,64.74 0.13,103.97 C0.13,143.2 32.05,175.12 71.28,175.12 C74.45,175.12 77.57,174.89 80.63,174.48 C82.87,203.86 107.48,227.09 137.42,227.09 C168.84,227.09 194.4,201.53 194.4,170.12 C194.4,154.9 188.47,140.59 177.71,129.83 Z"></path>
                        <path d="M137.42,156.22 C145.08,156.22 151.31,162.45 151.31,170.11 C151.31,177.77 145.08,184.01 137.42,184.01 L137.42,184.29 L137.42,184.01 C129.76,184.01 123.53,177.77 123.53,170.12 C123.53,162.46 129.76,156.22 137.42,156.22 Z M137.42,184.57 C145.39,184.57 151.88,178.08 151.88,170.11 C151.88,162.14 145.39,155.66 137.42,155.66 C129.45,155.66 122.97,162.14 122.97,170.12 C122.97,178.08 129.45,184.57 137.42,184.57 Z"></path>
                    </g>
                </g>
            </g>
        </g>
    </g>
</svg>