<?xml version="1.0" encoding="utf-8"?>
<!-- Generator: Adobe Illustrator 15.0.2, SVG Export Plug-In . SVG Version: 6.00 Build 0)  -->
<!DOCTYPE svg PUBLIC "-//W3C//DTD SVG 1.1//EN" "http://www.w3.org/Graphics/SVG/1.1/DTD/svg11.dtd">
<svg version="1.1" id="Layer_1" xmlns="http://www.w3.org/2000/svg" xmlns:xlink="http://www.w3.org/1999/xlink" x="0px" y="0px"
	 width="194.27px" height="226.4px" viewBox="0 0 194.27 226.4" enable-background="new 0 0 194.27 226.4" xml:space="preserve">
<g>
	<path fill-rule="evenodd" clip-rule="evenodd" fill="#939C4A" d="M123.4,37.14c0-7.66,6.23-13.9,13.89-13.9s13.89,6.24,13.89,13.89
		c0,7.66-6.23,13.9-13.89,13.9S123.4,44.79,123.4,37.14z M151.75,37.13c0-7.97-6.49-14.45-14.46-14.45
		c-7.97,0-14.45,6.48-14.45,14.46c0,7.96,6.48,14.45,14.45,14.45C145.26,51.59,151.75,45.1,151.75,37.13z"/>
	<path fill-rule="evenodd" clip-rule="evenodd" fill="#939C4A" d="M129.07,37.13c0-2.19,0.85-4.26,2.41-5.81
		c1.55-1.55,3.61-2.41,5.81-2.41c2.2,0,4.26,0.86,5.82,2.41c1.55,1.55,2.4,3.62,2.4,5.82c0,4.53-3.68,8.22-8.22,8.22v0.28v-0.28
		C132.76,45.36,129.07,41.67,129.07,37.13z M146.08,37.14c0-2.35-0.92-4.56-2.58-6.22c-1.66-1.66-3.86-2.57-6.21-2.57
		s-4.55,0.91-6.21,2.57c-1.66,1.66-2.57,3.87-2.57,6.21c0,4.85,3.94,8.79,8.78,8.79C142.14,45.92,146.08,41.98,146.08,37.14z"/>
	<path fill-rule="evenodd" clip-rule="evenodd" fill="#939C4A" d="M134.74,37.14c0-1.41,1.15-2.56,2.55-2.56
		c0.69,0,1.33,0.27,1.81,0.75s0.74,1.12,0.74,1.8c0.01,1.41-1.14,2.56-2.55,2.56S134.74,38.54,134.74,37.14z M140.41,37.13
		c0-0.83-0.33-1.61-0.92-2.2c-0.58-0.59-1.36-0.91-2.2-0.91c-1.71,0-3.11,1.4-3.11,3.12c0,1.71,1.4,3.11,3.11,3.11
		C139.01,40.25,140.41,38.85,140.41,37.13z"/>
	<path fill-rule="evenodd" clip-rule="evenodd" fill="#939C4A" d="M137.29,225.84c-29.66,0-54.02-23.01-56.23-52.12
		c6.72-0.94,13.14-2.83,19.13-5.52c-0.01,0.41-0.03,0.82-0.03,1.22c0,9.92,3.86,19.25,10.88,26.26
		c7.01,7.01,16.33,10.88,26.25,10.88c20.48,0,37.13-16.66,37.13-37.14c0-20.47-16.65-37.13-37.13-37.13c-0.4,0-0.81,0.02-1.22,0.03
		c2.69-5.99,4.58-12.41,5.52-19.13c13.45,1.01,25.96,6.71,35.59,16.35c10.66,10.65,16.52,24.82,16.52,39.89
		C193.7,200.53,168.4,225.84,137.29,225.84z M71.15,173.86c-38.92,0-70.59-31.66-70.59-70.58c0-38.92,31.67-70.58,70.59-70.59
		c10.35,0,20.19,2.27,29.06,6.29c0.38,7.82,3.2,15.01,7.71,20.83c-9.93-8.41-22.76-13.5-36.77-13.5
		c-31.42,0-56.98,25.55-56.98,56.97c0,31.41,25.56,56.97,56.98,56.98c3.44,0,6.8-0.33,10.08-0.92c-0.59,3.28-0.91,6.64-0.91,10.08
		c0,1.28,0.06,2.55,0.14,3.81C77.41,173.63,74.31,173.86,71.15,173.86z M100.72,37.14c0-20.17,16.41-36.57,36.57-36.57
		c20.17,0,36.57,16.4,36.57,36.56c0,20.17-16.4,36.57-36.57,36.57c-0.49,0-0.99-0.01-1.48-0.03c-2.96-6.46-6.86-12.39-11.53-17.63
		c3.7,2.55,8.18,4.05,13.01,4.05c12.66,0,22.96-10.3,22.96-22.96c0-6.13-2.39-11.89-6.72-16.23c-4.34-4.34-10.1-6.72-16.24-6.72
		c-12.66,0-22.96,10.3-22.96,22.95c0,4.83,1.5,9.31,4.06,13.02c-5.24-4.67-11.18-8.57-17.63-11.54
		C100.74,38.12,100.72,37.63,100.72,37.14z M114.69,139.97c6.18-7.33,10.55-16.23,12.41-26.02c3.31-0.6,6.71-0.94,10.19-0.94
		c1.25,0,2.5,0.06,3.74,0.14c-0.95,6.75-2.86,13.19-5.58,19.19C127.84,132.71,120.66,135.37,114.69,139.97z M126.51,114.06
		c-4.36,22.47-22.11,40.22-44.59,44.59C86.29,136.17,104.04,118.43,126.51,114.06z M71.15,139.85c-20.17,0-36.57-16.41-36.57-36.57
		c0-20.16,16.4-36.57,36.57-36.57c20.16,0,36.57,16.41,36.57,36.57C107.72,123.44,91.31,139.85,71.15,139.85z M127.56,103.28
		c0,3.48-0.33,6.88-0.94,10.19c-9.82,1.87-18.76,6.26-26.1,12.49c4.86-6.28,7.76-14.15,7.76-22.68c0-20.47-16.66-37.13-37.13-37.13
		c-20.48,0-37.13,16.66-37.13,37.13c0,20.47,16.65,37.13,37.13,37.13c8.53,0,16.4-2.9,22.67-7.76c-6.22,7.35-10.62,16.28-12.49,26.1
		c-3.3,0.61-6.7,0.94-10.18,0.94c-31.11,0-56.41-25.31-56.41-56.41c0-31.11,25.3-56.41,56.41-56.41
		C102.25,46.87,127.56,72.17,127.56,103.28z M135.18,73.64c-18.48-1.06-33.33-15.91-34.39-34.4
		C115.92,46.28,128.15,58.51,135.18,73.64z M114.9,37.13c0-12.34,10.04-22.39,22.39-22.39c5.98,0,11.61,2.33,15.84,6.56
		c4.23,4.23,6.56,9.85,6.56,15.83c0,12.35-10.05,22.4-22.4,22.4S114.9,49.48,114.9,37.13z M80.88,169.42
		c0-3.48,0.33-6.88,0.94-10.18c9.79-1.87,18.69-6.23,26.02-12.42c-4.6,5.97-7.26,13.15-7.63,20.76c-6,2.72-12.44,4.63-19.19,5.58
		C80.94,171.92,80.88,170.68,80.88,169.42z M100.79,167.32c0.51-8.98,4.24-17.35,10.64-23.75c6.41-6.41,14.78-10.14,23.75-10.65
		C128.15,148.05,115.92,160.28,100.79,167.32z M137.29,147.03c5.99,0,11.61,2.33,15.84,6.56c4.23,4.23,6.56,9.85,6.56,15.84
		c0,12.34-10.05,22.39-22.4,22.39s-22.39-10.05-22.39-22.39C114.9,157.08,124.94,147.03,137.29,147.03z M100.76,167.95
		c6.45-2.97,12.39-6.87,17.63-11.53c-2.56,3.7-4.06,8.18-4.06,13.01c0,12.65,10.3,22.95,22.96,22.95s22.96-10.3,22.96-22.95
		c0-6.14-2.39-11.9-6.72-16.24c-4.34-4.34-10.1-6.72-16.23-6.72c-4.83,0-9.31,1.5-13.01,4.05c4.66-5.24,8.56-11.18,11.53-17.63
		c0.49-0.02,0.98-0.04,1.47-0.04c20.17,0,36.57,16.41,36.57,36.57c0,20.17-16.4,36.57-36.57,36.57c-9.77,0-18.95-3.8-25.86-10.71
		c-6.9-6.91-10.71-16.09-10.7-25.86C100.73,168.93,100.74,168.44,100.76,167.95z M141.73,103.28c0,3.16-0.23,6.26-0.63,9.31
		c-1.26-0.08-2.53-0.14-3.81-0.14c-3.44,0-6.8,0.32-10.08,0.91c0.59-3.27,0.91-6.64,0.91-10.08c0-14.01-5.09-26.84-13.51-36.77
		c5.83,4.5,13.01,7.32,20.84,7.71C139.47,83.09,141.73,92.92,141.73,103.28z M177.58,129.14c-9.72-9.73-22.35-15.49-35.92-16.51
		c0.41-3.06,0.64-6.18,0.64-9.35c-0.01-10.34-2.24-20.17-6.23-29.04c0.41,0.01,0.81,0.03,1.22,0.03c20.48,0,37.13-16.66,37.13-37.14
		C174.42,16.66,157.77,0,137.29,0c-20.47,0-37.13,16.66-37.13,37.14c0,0.4,0.02,0.81,0.03,1.22c-8.87-3.99-18.7-6.23-29.04-6.23
		C31.92,32.13,0,64.05,0,103.28s31.92,71.15,71.15,71.15c3.17,0,6.29-0.23,9.35-0.64c2.24,29.38,26.85,52.61,56.79,52.61
		c31.42,0,56.98-25.56,56.98-56.97C194.27,154.21,188.34,139.9,177.58,129.14z"/>
	<path fill-rule="evenodd" clip-rule="evenodd" fill="#939C4A" d="M137.29,155.53c7.66,0,13.89,6.23,13.89,13.89
		c0,7.66-6.23,13.9-13.89,13.9v0.28v-0.28c-7.66,0-13.89-6.24-13.89-13.89C123.4,161.77,129.63,155.53,137.29,155.53z
		 M137.29,183.88c7.97,0,14.46-6.49,14.46-14.46c0-7.97-6.49-14.45-14.46-14.45c-7.97,0-14.45,6.48-14.45,14.46
		C122.84,177.39,129.32,183.88,137.29,183.88z"/>
</g>
</svg>
