<?xml version="1.0" encoding="UTF-8"?>
<svg width="511px" height="65px" viewBox="0 0 511 65" version="1.1" xmlns="http://www.w3.org/2000/svg" xmlns:xlink="http://www.w3.org/1999/xlink">
    <!-- Generator: Sketch 52.4 (67378) - http://www.bohemiancoding.com/sketch -->
    <title>ubc sustainability_logo_white</title>
    <desc>Created with Sketch.</desc>
    <defs>
        <filter x="-2.4%" y="-21.1%" width="104.8%" height="142.1%" filterUnits="objectBoundingBox" id="filter-1">
            <feOffset dx="0" dy="2" in="SourceAlpha" result="shadowOffsetOuter1"></feOffset>
            <feGaussianBlur stdDeviation="2" in="shadowOffsetOuter1" result="shadowBlurOuter1"></feGaussianBlur>
            <feColorMatrix values="0 0 0 0 0   0 0 0 0 0   0 0 0 0 0  0 0 0 0.5 0" type="matrix" in="shadowBlurOuter1" result="shadowMatrixOuter1"></feColorMatrix>
            <feMerge>
                <feMergeNode in="shadowMatrixOuter1"></feMergeNode>
                <feMergeNode in="SourceGraphic"></feMergeNode>
            </feMerge>
        </filter>
        <rect id="path-2" x="0" y="0" width="503.392" height="56.955"></rect>
        <rect id="path-4" x="0" y="0" width="503.392" height="56.955"></rect>
        <rect id="path-6" x="0" y="0" width="503.392" height="56.955"></rect>
        <rect id="path-8" x="0" y="0" width="503.392" height="56.955"></rect>
        <rect id="path-10" x="0" y="0" width="503.392" height="56.955"></rect>
        <rect id="path-12" x="0" y="0" width="503.392" height="56.955"></rect>
        <rect id="path-14" x="0" y="0" width="503.392" height="56.955"></rect>
        <rect id="path-16" x="0" y="0" width="503.392" height="56.955"></rect>
        <rect id="path-18" x="0" y="0" width="503.392" height="56.955"></rect>
        <rect id="path-20" x="0" y="0" width="503.392" height="56.955"></rect>
        <rect id="path-22" x="0" y="0" width="503.392" height="56.955"></rect>
        <rect id="path-24" x="0" y="0" width="503.392" height="56.955"></rect>
        <rect id="path-26" x="0" y="0" width="503.392" height="56.955"></rect>
        <rect id="path-28" x="0" y="0" width="503.392" height="56.955"></rect>
        <rect id="path-30" x="0" y="0" width="503.392" height="56.955"></rect>
        <rect id="path-32" x="0" y="0" width="503.392" height="56.955"></rect>
        <rect id="path-34" x="0" y="0" width="503.392" height="56.955"></rect>
    </defs>
    <g id="Page-1" stroke="none" stroke-width="1" fill="none" fill-rule="evenodd">
        <g id="ubc-sustainability_logo_white" filter="url(#filter-1)" transform="translate(4.000000, 2.000000)">
            <g id="SVGID_1_-link">
                <rect id="SVGID_1_" x="0" y="0" width="503.392" height="56.955"></rect>
            </g>
            <g id="Clipped">
                <mask id="mask-3" fill="white">
                    <use xlink:href="#path-2"></use>
                </mask>
                <g id="SVGID_1_"></g>
                <path d="M123.381,46.118 C118.971,46.118 114.435,44.732 111.537,43.157 L112.545,36.856 C115.821,38.999 119.854,40.448 123.634,40.448 C126.909,40.448 128.674,39.251 128.674,37.235 C128.674,35.093 127.351,34.21 122.499,33.013 C115.128,31.124 112.041,28.981 112.041,23.437 C112.041,18.144 116.199,14.427 123.255,14.427 C127.225,14.427 130.879,15.247 133.903,16.57 L132.895,22.87 C129.871,21.169 126.279,20.098 123.255,20.098 C120.42,20.098 119.034,21.232 119.034,22.87 C119.034,24.509 120.168,25.453 124.704,26.65 C132.58,28.667 135.667,30.808 135.667,36.542 C135.667,42.527 131.383,46.118 123.381,46.118" id="Path" fill="#FFFFFF" mask="url(#mask-3)"></path>
            </g>
            <g id="Clipped">
                <mask id="mask-5" fill="white">
                    <use xlink:href="#path-4"></use>
                </mask>
                <g id="SVGID_1_"></g>
                <path d="M163.89,45.488 L163.197,41.204 C160.361,43.913 157.086,46.118 153.054,46.118 C147.32,46.118 144.358,42.653 144.358,36.92 L144.358,15.057 L151.919,15.057 L151.919,34.966 C151.919,37.612 153.054,39.377 155.763,39.377 C158.156,39.377 160.551,37.864 162.756,35.596 L162.756,15.057 L170.316,15.057 L170.316,45.488 L163.89,45.488 Z" id="Path" fill="#FFFFFF" mask="url(#mask-5)"></path>
            </g>
            <g id="Clipped">
                <mask id="mask-7" fill="white">
                    <use xlink:href="#path-6"></use>
                </mask>
                <g id="SVGID_1_"></g>
                <path d="M191.105,46.118 C186.694,46.118 182.158,44.732 179.261,43.157 L180.269,36.856 C183.545,38.999 187.577,40.448 191.357,40.448 C194.633,40.448 196.397,39.251 196.397,37.235 C196.397,35.093 195.074,34.21 190.223,33.013 C182.852,31.124 179.765,28.981 179.765,23.437 C179.765,18.144 183.923,14.427 190.979,14.427 C194.948,14.427 198.603,15.247 201.627,16.57 L200.618,22.87 C197.595,21.169 194.003,20.098 190.979,20.098 C188.144,20.098 186.758,21.232 186.758,22.87 C186.758,24.509 187.892,25.453 192.428,26.65 C200.304,28.667 203.391,30.808 203.391,36.542 C203.391,42.527 199.106,46.118 191.105,46.118" id="Path" fill="#FFFFFF" mask="url(#mask-7)"></path>
            </g>
            <g id="Clipped">
                <mask id="mask-9" fill="white">
                    <use xlink:href="#path-8"></use>
                </mask>
                <g id="SVGID_1_"></g>
                <path d="M223.676,45.992 C217.69,45.992 213.658,43.787 213.658,36.856 L213.658,21.232 L209.374,21.232 L209.374,15.057 L213.658,15.057 L213.658,5.418 L221.093,4.284 L221.093,15.057 L227.33,15.057 L228.275,21.232 L221.093,21.232 L221.093,35.596 C221.093,38.053 222.227,39.377 225.125,39.377 C226.007,39.377 226.826,39.313 227.52,39.125 L228.465,45.488 C227.268,45.74 225.881,45.992 223.676,45.992" id="Path" fill="#FFFFFF" mask="url(#mask-9)"></path>
            </g>
            <g id="Clipped">
                <mask id="mask-11" fill="white">
                    <use xlink:href="#path-10"></use>
                </mask>
                <g id="SVGID_1_"></g>
                <path d="M254.671,45.489 L254.041,41.519 C251.584,44.103 248.434,46.118 243.897,46.118 C238.73,46.118 235.267,42.968 235.267,37.676 C235.267,30.304 241.314,27.092 253.6,25.895 L253.6,25.013 C253.6,21.737 251.709,20.477 248.371,20.477 C244.843,20.477 241.504,21.485 238.228,22.934 L237.282,16.885 C240.811,15.499 244.527,14.428 249.379,14.428 C257.254,14.428 261.16,17.327 261.16,24.635 L261.16,45.489 L254.671,45.489 Z M253.601,30.304 C244.843,31.376 242.765,33.958 242.765,36.857 C242.765,39.062 244.15,40.385 246.481,40.385 C249.063,40.385 251.522,39.189 253.601,37.109 L253.601,30.304 Z" id="Shape" fill="#FFFFFF" fill-rule="nonzero" mask="url(#mask-11)"></path>
            </g>
            <g id="Clipped">
                <mask id="mask-13" fill="white">
                    <use xlink:href="#path-12"></use>
                </mask>
                <g id="SVGID_1_"></g>
                <path d="M275.648,9.954 C273.128,9.954 271.112,8.19 271.112,5.67 C271.112,3.087 273.129,1.26 275.648,1.26 C278.106,1.26 280.122,3.087 280.122,5.67 C280.122,8.19 278.106,9.954 275.648,9.954 Z M271.806,15.058 L279.367,15.058 L279.367,45.489 L271.806,45.489 L271.806,15.058 Z" id="Shape" fill="#FFFFFF" fill-rule="nonzero" mask="url(#mask-13)"></path>
            </g>
            <g id="Clipped">
                <mask id="mask-15" fill="white">
                    <use xlink:href="#path-14"></use>
                </mask>
                <g id="SVGID_1_"></g>
                <path d="M308.599,45.488 L308.599,25.58 C308.599,22.934 307.465,21.107 304.693,21.107 C302.298,21.107 299.967,22.619 297.762,24.95 L297.762,45.489 L290.201,45.489 L290.201,15.057 L296.628,15.057 L297.321,19.341 C300.156,16.633 303.369,14.427 307.465,14.427 C313.135,14.427 316.159,17.892 316.159,23.563 L316.159,45.488 L308.599,45.488 Z" id="Path" fill="#FFFFFF" mask="url(#mask-15)"></path>
            </g>
            <g id="Clipped">
                <mask id="mask-17" fill="white">
                    <use xlink:href="#path-16"></use>
                </mask>
                <g id="SVGID_1_"></g>
                <path d="M344.257,45.489 L343.627,41.519 C341.17,44.103 338.02,46.118 333.483,46.118 C328.317,46.118 324.852,42.968 324.852,37.676 C324.852,30.304 330.9,27.092 343.187,25.895 L343.187,25.013 C343.187,21.737 341.295,20.477 337.957,20.477 C334.429,20.477 331.09,21.485 327.812,22.934 L326.868,16.885 C330.396,15.499 334.113,14.428 338.965,14.428 C346.84,14.428 350.746,17.327 350.746,24.635 L350.746,45.489 L344.257,45.489 Z M343.188,30.304 C334.429,31.376 332.35,33.958 332.35,36.857 C332.35,39.062 333.736,40.385 336.067,40.385 C338.65,40.385 341.108,39.189 343.188,37.109 L343.188,30.304 Z" id="Shape" fill="#FFFFFF" fill-rule="nonzero" mask="url(#mask-17)"></path>
            </g>
            <g id="Clipped">
                <mask id="mask-19" fill="white">
                    <use xlink:href="#path-18"></use>
                </mask>
                <g id="SVGID_1_"></g>
                <path d="M373.552,45.867 C368.826,45.867 364.857,45.111 361.076,43.851 L361.076,1.197 L368.637,0 L368.637,18.46 C370.59,16.444 373.426,14.427 377.269,14.427 C383.696,14.427 388.736,19.215 388.736,29.423 C388.735,40.637 382.624,45.867 373.552,45.867 M375.315,21.106 C372.794,21.106 370.527,22.807 368.636,25.075 L368.636,38.873 C370.211,39.44 371.282,39.692 373.425,39.692 C378.213,39.692 381.111,36.794 381.111,29.863 C381.111,24.004 378.718,21.106 375.315,21.106" id="Shape" fill="#FFFFFF" fill-rule="nonzero" mask="url(#mask-19)"></path>
            </g>
            <g id="Clipped">
                <mask id="mask-21" fill="white">
                    <use xlink:href="#path-20"></use>
                </mask>
                <g id="SVGID_1_"></g>
                <path d="M401.899,9.954 C399.379,9.954 397.363,8.19 397.363,5.67 C397.363,3.087 399.38,1.26 401.899,1.26 C404.357,1.26 406.373,3.087 406.373,5.67 C406.373,8.19 404.357,9.954 401.899,9.954 Z M398.057,15.058 L405.618,15.058 L405.618,45.489 L398.057,45.489 L398.057,15.058 Z" id="Shape" fill="#FFFFFF" fill-rule="nonzero" mask="url(#mask-21)"></path>
            </g>
            <g id="Clipped">
                <mask id="mask-23" fill="white">
                    <use xlink:href="#path-22"></use>
                </mask>
                <g id="SVGID_1_"></g>
                <polygon id="Path" fill="#FFFFFF" mask="url(#mask-23)" points="416.768 45.488 416.768 1.197 424.328 0 424.328 45.488"></polygon>
            </g>
            <g id="Clipped">
                <mask id="mask-25" fill="white">
                    <use xlink:href="#path-24"></use>
                </mask>
                <g id="SVGID_1_"></g>
                <path d="M439.321,9.954 C436.801,9.954 434.785,8.19 434.785,5.67 C434.785,3.087 436.802,1.26 439.321,1.26 C441.779,1.26 443.795,3.087 443.795,5.67 C443.795,8.19 441.779,9.954 439.321,9.954 Z M435.479,15.058 L443.04,15.058 L443.04,45.489 L435.479,45.489 L435.479,15.058 Z" id="Shape" fill="#FFFFFF" fill-rule="nonzero" mask="url(#mask-25)"></path>
            </g>
            <g id="Clipped">
                <mask id="mask-27" fill="white">
                    <use xlink:href="#path-26"></use>
                </mask>
                <g id="SVGID_1_"></g>
                <path d="M465.467,45.992 C459.481,45.992 455.449,43.787 455.449,36.856 L455.449,21.232 L451.165,21.232 L451.165,15.057 L455.449,15.057 L455.449,5.418 L462.884,4.284 L462.884,15.057 L469.121,15.057 L470.066,21.232 L462.883,21.232 L462.883,35.596 C462.883,38.053 464.017,39.377 466.915,39.377 C467.797,39.377 468.616,39.313 469.31,39.125 L470.255,45.488 C469.059,45.74 467.672,45.992 465.467,45.992" id="Path" fill="#FFFFFF" mask="url(#mask-27)"></path>
            </g>
            <g id="Clipped">
                <mask id="mask-29" fill="white">
                    <use xlink:href="#path-28"></use>
                </mask>
                <g id="SVGID_1_"></g>
                <path d="M491.737,47.441 C489.153,54.75 485.626,56.955 480.144,56.955 C478.505,56.955 477.749,56.829 477.056,56.639 L476.048,50.276 C476.993,50.528 478.064,50.717 479.388,50.717 C481.782,50.717 483.546,49.71 484.742,46.874 L485.183,45.614 L474.158,15.625 L482.033,14.617 L489.09,36.226 L495.769,15.057 L503.392,15.057 L491.737,47.441 Z" id="Path" fill="#FFFFFF" mask="url(#mask-29)"></path>
            </g>
            <g id="Clipped">
                <mask id="mask-31" fill="white">
                    <use xlink:href="#path-30"></use>
                </mask>
                <g id="SVGID_1_"></g>
                <path d="M13.912,46.065 C5.199,46.065 0,41.394 0,33.571 L0,14.824 L7.223,14.824 L7.223,33.267 C7.223,37.818 9.615,40.324 13.963,40.324 C18.434,40.324 20.801,37.928 20.801,33.4 L20.801,14.824 L28.072,14.824 L28.072,33.443 C28.072,41.226 22.644,46.065 13.912,46.065" id="Path" fill="#FFFFFF" mask="url(#mask-31)"></path>
            </g>
            <g id="Clipped">
                <mask id="mask-33" fill="white">
                    <use xlink:href="#path-32"></use>
                </mask>
                <g id="SVGID_1_"></g>
                <path d="M43.196,27.159 L45.813,27.159 C49.336,27.159 51.276,25.839 51.276,23.448 C51.276,21.101 49.584,19.956 46.106,19.956 L43.196,19.956 L43.196,27.159 Z M43.196,40.409 L46.301,40.409 C49.108,40.409 52.453,39.691 52.453,36.265 C52.453,32.733 49.055,31.987 46.203,31.987 L43.196,31.987 L43.196,40.409 Z M46.301,45.546 L36.215,45.546 L36.215,14.819 L46.451,14.819 C53.934,14.819 58.059,17.716 58.059,22.972 C58.059,25.743 56.613,27.87 53.867,29.175 C57.559,30.478 59.43,32.917 59.43,36.441 C59.43,42.312 54.77,45.546 46.301,45.546 Z" id="Shape" fill="#FFFFFF" fill-rule="nonzero" mask="url(#mask-33)"></path>
            </g>
            <g id="Clipped">
                <mask id="mask-35" fill="white">
                    <use xlink:href="#path-34"></use>
                </mask>
                <g id="SVGID_1_"></g>
                <path d="M81.658,46.065 C71.715,46.065 65.291,39.846 65.291,30.225 C65.291,20.698 71.949,14.299 81.855,14.299 C85.531,14.299 88.623,15.026 91.308,16.518 L91.539,16.647 L90.465,22.907 L89.988,22.585 C87.347,20.819 84.844,20 82.101,20 C76.191,20 72.662,23.808 72.662,30.183 C72.662,36.437 76.316,40.324 82.199,40.324 C84.99,40.324 87.734,39.488 90.59,37.773 L91.058,37.488 L92.08,43.322 L91.851,43.455 C88.918,45.135 85.297,46.065 81.658,46.065" id="Path" fill="#FFFFFF" mask="url(#mask-35)"></path>
            </g>
        </g>
    </g>
</svg>